<svg width="275" height="209" viewBox="0 0 275 209" fill="none" xmlns="http://www.w3.org/2000/svg">
<g clip-path="url(#clip0_120_3)">
<rect width="275" height="209" fill="white"/>
<path d="M16.104 188.136C16.936 187.944 17.816 187.8 18.744 187.704C19.672 187.608 20.456 187.544 21.096 187.512C21.576 187.48 21.976 187.592 22.296 187.848C22.616 188.072 22.92 188.456 23.208 189C23.464 189.448 23.704 189.976 23.928 190.584C24.184 191.192 24.376 191.736 24.504 192.216C24.664 192.792 24.68 193.176 24.552 193.368C24.424 193.56 24.12 193.704 23.64 193.8C22.872 193.864 21.976 193.976 20.952 194.136C19.96 194.296 18.952 194.488 17.928 194.712C16.904 194.904 15.928 195.096 15 195.288C14.072 195.512 13.288 195.72 12.648 195.912C11.72 196.168 11.08 196.216 10.728 196.056C10.376 195.928 10.056 195.672 9.768 195.288C9.416 194.904 9 194.36 8.52 193.656C8.008 192.952 7.592 192.312 7.272 191.736C7.144 191.512 7.032 191.256 6.936 190.968C6.808 190.68 6.728 190.392 6.696 190.104C6.664 189.816 6.696 189.528 6.792 189.24C6.856 188.952 7.016 188.664 7.272 188.376C8.392 187.192 9.544 185.848 10.728 184.344C11.944 182.84 13.112 181.304 14.232 179.736C15.352 178.136 16.376 176.568 17.304 175.032C18.264 173.464 19.064 172.056 19.704 170.808C20.376 169.528 20.84 168.456 21.096 167.592C21.384 166.728 21.4 166.184 21.144 165.96C20.92 165.736 20.616 165.688 20.232 165.816C19.88 165.944 19.48 166.216 19.032 166.632C18.584 167.016 18.104 167.512 17.592 168.12C17.112 168.696 16.632 169.304 16.152 169.944C15.416 170.712 14.536 171.112 13.512 171.144C12.52 171.176 11.592 170.984 10.728 170.568C10.472 170.44 10.264 170.296 10.104 170.136C9.944 169.944 9.848 169.688 9.816 169.368C9.784 169.048 9.816 168.68 9.912 168.264C10.008 167.816 10.2 167.256 10.488 166.584C11.416 164.536 12.552 162.824 13.896 161.448C15.24 160.072 16.68 159.192 18.216 158.808C19.112 158.584 19.96 158.584 20.76 158.808C21.592 159 22.36 159.336 23.064 159.816C23.768 160.296 24.376 160.856 24.888 161.496C25.432 162.104 25.864 162.712 26.184 163.32C26.632 164.248 26.92 165.144 27.048 166.008C27.208 166.872 27.24 167.736 27.144 168.6C27.08 169.464 26.904 170.344 26.616 171.24C26.36 172.104 26.04 173 25.656 173.928C25.208 175.048 24.632 176.232 23.928 177.48C23.224 178.696 22.44 179.928 21.576 181.176C20.744 182.424 19.848 183.656 18.888 184.872C17.96 186.056 17.032 187.144 16.104 188.136ZM35.9321 188.136C36.7641 187.944 37.6441 187.8 38.5721 187.704C39.5001 187.608 40.2841 187.544 40.9241 187.512C41.4041 187.48 41.8041 187.592 42.1241 187.848C42.4441 188.072 42.7481 188.456 43.0361 189C43.2921 189.448 43.5321 189.976 43.7561 190.584C44.0121 191.192 44.2041 191.736 44.3321 192.216C44.4921 192.792 44.5081 193.176 44.3801 193.368C44.2521 193.56 43.9481 193.704 43.4681 193.8C42.7001 193.864 41.8041 193.976 40.7801 194.136C39.7881 194.296 38.7801 194.488 37.7561 194.712C36.7321 194.904 35.7561 195.096 34.8281 195.288C33.9001 195.512 33.1161 195.72 32.4761 195.912C31.5481 196.168 30.9081 196.216 30.5561 196.056C30.2041 195.928 29.8841 195.672 29.5961 195.288C29.2441 194.904 28.8281 194.36 28.3481 193.656C27.8361 192.952 27.4201 192.312 27.1001 191.736C26.9721 191.512 26.8601 191.256 26.7641 190.968C26.6361 190.68 26.5561 190.392 26.5241 190.104C26.4921 189.816 26.5241 189.528 26.6201 189.24C26.6841 188.952 26.8441 188.664 27.1001 188.376C28.2201 187.192 29.3721 185.848 30.5561 184.344C31.7721 182.84 32.9401 181.304 34.0601 179.736C35.1801 178.136 36.2041 176.568 37.1321 175.032C38.0921 173.464 38.8921 172.056 39.5321 170.808C40.2041 169.528 40.6681 168.456 40.9241 167.592C41.2121 166.728 41.2281 166.184 40.9721 165.96C40.7481 165.736 40.4441 165.688 40.0601 165.816C39.7081 165.944 39.3081 166.216 38.8601 166.632C38.4121 167.016 37.9321 167.512 37.4201 168.12C36.9401 168.696 36.4601 169.304 35.9801 169.944C35.2441 170.712 34.3641 171.112 33.3401 171.144C32.3481 171.176 31.4201 170.984 30.5561 170.568C30.3001 170.44 30.0921 170.296 29.9321 170.136C29.7721 169.944 29.6761 169.688 29.6441 169.368C29.6121 169.048 29.6441 168.68 29.7401 168.264C29.8361 167.816 30.0281 167.256 30.3161 166.584C31.2441 164.536 32.3801 162.824 33.7241 161.448C35.0681 160.072 36.5081 159.192 38.0441 158.808C38.9401 158.584 39.7881 158.584 40.5881 158.808C41.4201 159 42.1881 159.336 42.8921 159.816C43.5961 160.296 44.2041 160.856 44.7161 161.496C45.2601 162.104 45.6921 162.712 46.0121 163.32C46.4601 164.248 46.7481 165.144 46.8761 166.008C47.0361 166.872 47.0681 167.736 46.9721 168.6C46.9081 169.464 46.7321 170.344 46.4441 171.24C46.1881 172.104 45.8681 173 45.4841 173.928C45.0361 175.048 44.4601 176.232 43.7561 177.48C43.0521 178.696 42.2681 179.928 41.4041 181.176C40.5721 182.424 39.6761 183.656 38.7161 184.872C37.7881 186.056 36.8601 187.144 35.9321 188.136ZM58.6403 163.704C58.3843 164.92 58.0963 166.344 57.7763 167.976C57.4883 169.608 57.1843 171.336 56.8643 173.16C56.5763 174.984 56.2723 176.872 55.9523 178.824C55.6643 180.776 55.3763 182.696 55.0883 184.584C54.8323 186.44 54.5763 188.232 54.3203 189.96C54.0963 191.688 53.9043 193.24 53.7443 194.616C53.6483 195.16 53.5043 195.512 53.3123 195.672C53.1203 195.832 52.7523 195.8 52.2083 195.576C51.6963 195.384 51.1843 195.192 50.6723 195C50.1923 194.84 49.6963 194.568 49.1843 194.184C48.8003 193.832 48.5442 193.416 48.4162 192.936C48.2882 192.456 48.2562 191.8 48.3202 190.968C48.3842 189.816 48.4962 188.312 48.6562 186.456C48.8483 184.6 49.0723 182.616 49.3283 180.504C49.6163 178.36 49.9203 176.2 50.2402 174.024C50.5603 171.816 50.8803 169.8 51.2003 167.976C50.4323 167.432 49.9363 167 49.7123 166.68C49.5203 166.328 49.5683 165.768 49.8563 165C50.1763 164.104 50.5603 163.208 51.0083 162.312C51.4563 161.384 51.8723 160.584 52.2563 159.912C52.6083 159.304 52.9123 158.936 53.1683 158.808C53.4563 158.68 53.8883 158.728 54.4643 158.952C55.0083 159.144 55.5523 159.4 56.0963 159.72C56.6403 160.04 57.1843 160.456 57.7283 160.968C58.2403 161.416 58.5603 161.816 58.6883 162.168C58.8163 162.52 58.8003 163.032 58.6403 163.704ZM68.1353 188.136C68.9673 187.944 69.8473 187.8 70.7753 187.704C71.7033 187.608 72.4873 187.544 73.1273 187.512C73.6073 187.48 74.0073 187.592 74.3273 187.848C74.6473 188.072 74.9513 188.456 75.2393 189C75.4953 189.448 75.7353 189.976 75.9593 190.584C76.2153 191.192 76.4073 191.736 76.5353 192.216C76.6953 192.792 76.7113 193.176 76.5833 193.368C76.4553 193.56 76.1513 193.704 75.6713 193.8C74.9033 193.864 74.0073 193.976 72.9833 194.136C71.9913 194.296 70.9833 194.488 69.9593 194.712C68.9353 194.904 67.9593 195.096 67.0312 195.288C66.1033 195.512 65.3193 195.72 64.6793 195.912C63.7513 196.168 63.1113 196.216 62.7593 196.056C62.4073 195.928 62.0873 195.672 61.7993 195.288C61.4473 194.904 61.0312 194.36 60.5512 193.656C60.0392 192.952 59.6232 192.312 59.3032 191.736C59.1752 191.512 59.0632 191.256 58.9672 190.968C58.8392 190.68 58.7592 190.392 58.7272 190.104C58.6952 189.816 58.7272 189.528 58.8232 189.24C58.8872 188.952 59.0472 188.664 59.3032 188.376C60.4232 187.192 61.5753 185.848 62.7593 184.344C63.9753 182.84 65.1433 181.304 66.2633 179.736C67.3833 178.136 68.4073 176.568 69.3353 175.032C70.2953 173.464 71.0953 172.056 71.7353 170.808C72.4073 169.528 72.8713 168.456 73.1273 167.592C73.4153 166.728 73.4313 166.184 73.1753 165.96C72.9513 165.736 72.6473 165.688 72.2633 165.816C71.9113 165.944 71.5113 166.216 71.0633 166.632C70.6153 167.016 70.1353 167.512 69.6233 168.12C69.1433 168.696 68.6633 169.304 68.1833 169.944C67.4473 170.712 66.5673 171.112 65.5433 171.144C64.5513 171.176 63.6233 170.984 62.7593 170.568C62.5033 170.44 62.2953 170.296 62.1353 170.136C61.9753 169.944 61.8793 169.688 61.8473 169.368C61.8153 169.048 61.8473 168.68 61.9433 168.264C62.0393 167.816 62.2313 167.256 62.5193 166.584C63.4473 164.536 64.5833 162.824 65.9273 161.448C67.2713 160.072 68.7113 159.192 70.2473 158.808C71.1433 158.584 71.9913 158.584 72.7913 158.808C73.6233 159 74.3913 159.336 75.0953 159.816C75.7993 160.296 76.4073 160.856 76.9193 161.496C77.4633 162.104 77.8953 162.712 78.2153 163.32C78.6633 164.248 78.9513 165.144 79.0793 166.008C79.2393 166.872 79.2713 167.736 79.1753 168.6C79.1113 169.464 78.9353 170.344 78.6473 171.24C78.3913 172.104 78.0713 173 77.6873 173.928C77.2393 175.048 76.6633 176.232 75.9593 177.48C75.2553 178.696 74.4713 179.928 73.6073 181.176C72.7753 182.424 71.8793 183.656 70.9193 184.872C69.9913 186.056 69.0633 187.144 68.1353 188.136ZM97.4674 177.336C98.3314 177.4 98.9554 177.928 99.3394 178.92C99.5634 179.496 99.7234 180.024 99.8194 180.504C99.9474 180.952 100.091 181.448 100.251 181.992C100.379 182.6 100.363 183.016 100.203 183.24C100.075 183.464 99.7554 183.608 99.2434 183.672C98.7634 183.704 98.2834 183.736 97.8034 183.768C97.3234 183.8 96.8434 183.832 96.3634 183.864C96.0114 185.976 95.6754 187.976 95.3554 189.864C95.0674 191.72 94.8274 193.416 94.6354 194.952C94.5394 195.56 94.3794 195.944 94.1554 196.104C93.9634 196.264 93.5954 196.248 93.0514 196.056C92.6354 195.896 92.1714 195.672 91.6594 195.384C91.1474 195.128 90.6674 194.824 90.2194 194.472C89.7714 194.024 89.4674 193.592 89.3074 193.176C89.1794 192.728 89.1634 192.088 89.2594 191.256C89.3234 190.488 89.4194 189.56 89.5474 188.472C89.7074 187.352 89.8994 186.072 90.1234 184.632C89.1954 184.792 88.2834 184.952 87.3874 185.112C86.4914 185.24 85.6274 185.4 84.7954 185.592C84.3474 185.72 83.9314 185.768 83.5474 185.736C83.1634 185.672 82.7634 185.368 82.3474 184.824C81.8674 184.28 81.4034 183.672 80.9554 183C80.5074 182.296 80.0914 181.592 79.7074 180.888C79.4514 180.312 79.3234 179.768 79.3234 179.256C79.2914 178.712 79.4354 178.104 79.7554 177.432C80.3634 176.056 81.1314 174.52 82.0594 172.824C83.0194 171.128 84.0274 169.448 85.0834 167.784C86.1714 166.088 87.2434 164.488 88.2994 162.984C89.3874 161.448 90.3634 160.152 91.2274 159.096C91.6754 158.616 92.0594 158.344 92.3794 158.28C92.6994 158.184 93.1314 158.248 93.6754 158.472C93.9634 158.6 94.3474 158.808 94.8274 159.096C95.3074 159.384 95.8034 159.704 96.3154 160.056C96.8594 160.376 97.3714 160.712 97.8514 161.064C98.3634 161.416 98.7634 161.704 99.0514 161.928C99.5634 162.376 99.8674 162.792 99.9634 163.176C100.091 163.528 100.075 164.04 99.9154 164.712C99.5634 166.344 99.1794 168.248 98.7634 170.424C98.3474 172.6 97.9154 174.904 97.4674 177.336ZM85.3714 178.392C86.2354 178.232 87.1794 178.104 88.2034 178.008C89.2274 177.912 90.2514 177.8 91.2754 177.672C91.6274 175.784 91.9634 173.896 92.2834 172.008C92.6354 170.088 93.0034 168.248 93.3874 166.488C92.6834 167.352 91.9794 168.28 91.2754 169.272C90.5714 170.264 89.8674 171.288 89.1634 172.344C88.4914 173.368 87.8354 174.392 87.1954 175.416C86.5554 176.44 85.9474 177.432 85.3714 178.392ZM120.202 177.336C121.066 177.4 121.69 177.928 122.074 178.92C122.298 179.496 122.458 180.024 122.554 180.504C122.682 180.952 122.826 181.448 122.986 181.992C123.114 182.6 123.098 183.016 122.938 183.24C122.81 183.464 122.49 183.608 121.978 183.672C121.498 183.704 121.018 183.736 120.538 183.768C120.058 183.8 119.578 183.832 119.098 183.864C118.746 185.976 118.41 187.976 118.09 189.864C117.802 191.72 117.562 193.416 117.37 194.952C117.274 195.56 117.114 195.944 116.89 196.104C116.698 196.264 116.33 196.248 115.786 196.056C115.37 195.896 114.906 195.672 114.394 195.384C113.882 195.128 113.402 194.824 112.954 194.472C112.506 194.024 112.202 193.592 112.042 193.176C111.914 192.728 111.898 192.088 111.994 191.256C112.058 190.488 112.154 189.56 112.282 188.472C112.442 187.352 112.634 186.072 112.858 184.632C111.93 184.792 111.018 184.952 110.122 185.112C109.226 185.24 108.362 185.4 107.53 185.592C107.082 185.72 106.666 185.768 106.282 185.736C105.898 185.672 105.498 185.368 105.082 184.824C104.602 184.28 104.138 183.672 103.69 183C103.242 182.296 102.826 181.592 102.442 180.888C102.186 180.312 102.058 179.768 102.058 179.256C102.026 178.712 102.17 178.104 102.49 177.432C103.098 176.056 103.866 174.52 104.794 172.824C105.754 171.128 106.762 169.448 107.818 167.784C108.906 166.088 109.978 164.488 111.034 162.984C112.122 161.448 113.098 160.152 113.962 159.096C114.41 158.616 114.794 158.344 115.114 158.28C115.434 158.184 115.866 158.248 116.41 158.472C116.698 158.6 117.082 158.808 117.562 159.096C118.042 159.384 118.538 159.704 119.05 160.056C119.594 160.376 120.106 160.712 120.586 161.064C121.098 161.416 121.498 161.704 121.786 161.928C122.298 162.376 122.602 162.792 122.698 163.176C122.826 163.528 122.81 164.04 122.65 164.712C122.298 166.344 121.914 168.248 121.498 170.424C121.082 172.6 120.65 174.904 120.202 177.336ZM108.106 178.392C108.97 178.232 109.914 178.104 110.938 178.008C111.962 177.912 112.986 177.8 114.01 177.672C114.362 175.784 114.698 173.896 115.018 172.008C115.37 170.088 115.738 168.248 116.122 166.488C115.418 167.352 114.714 168.28 114.01 169.272C113.306 170.264 112.602 171.288 111.898 172.344C111.226 173.368 110.57 174.392 109.93 175.416C109.29 176.44 108.682 177.432 108.106 178.392ZM152.834 185.112C153.634 185.432 154.05 185.912 154.082 186.552C154.146 187.192 154.018 187.992 153.698 188.952C153.346 190.072 152.882 191.112 152.306 192.072C151.73 193.032 151.154 193.832 150.578 194.472C149.97 195.08 149.17 195.56 148.178 195.912C147.218 196.296 146.258 196.424 145.298 196.296C144.306 196.168 143.394 195.912 142.562 195.528C141.762 195.176 141.042 194.84 140.402 194.52C139.858 194.168 139.298 193.656 138.722 192.984C138.178 192.312 137.762 191.528 137.474 190.632C136.994 189.32 136.674 187.816 136.514 186.12C136.354 184.424 136.338 182.632 136.466 180.744C136.562 178.824 136.802 176.888 137.186 174.936C137.57 172.952 138.066 171.048 138.674 169.224C139.282 167.368 140.002 165.656 140.834 164.088C141.666 162.488 142.578 161.112 143.57 159.96C144.37 159.064 145.17 158.488 145.97 158.232C146.77 157.976 147.522 157.88 148.226 157.944C149.282 158.072 150.354 158.424 151.442 159C152.562 159.544 153.49 160.136 154.226 160.776C154.994 161.576 155.506 162.376 155.762 163.176C156.05 163.976 156.226 164.888 156.29 165.912C156.354 167.096 156.354 168.392 156.29 169.8C156.226 171.208 156.098 172.392 155.906 173.352C155.778 173.8 155.634 174.168 155.474 174.456C155.314 174.712 154.898 174.744 154.226 174.552C152.946 174.2 152.018 173.64 151.442 172.872C150.866 172.072 150.482 171 150.29 169.656C150.258 169.4 150.226 169.144 150.194 168.888C150.194 168.632 150.194 168.376 150.194 168.12C150.194 167.288 150.146 166.536 150.05 165.864C149.986 165.16 149.762 164.712 149.378 164.52C148.994 164.36 148.546 164.664 148.034 165.432C147.522 166.2 146.994 167.208 146.45 168.456C145.906 169.704 145.394 171.08 144.914 172.584C144.434 174.088 144.05 175.512 143.762 176.856C143.474 178.296 143.25 179.752 143.09 181.224C142.962 182.696 142.914 184.056 142.946 185.304C142.978 186.52 143.09 187.544 143.282 188.376C143.506 189.208 143.842 189.72 144.29 189.912C145.154 190.36 146.418 189.272 148.082 186.648C149.298 184.824 150.882 184.312 152.834 185.112ZM178.982 163.128C178.598 165.112 178.182 167.384 177.734 169.944C177.286 172.504 176.822 175.192 176.342 178.008C175.894 180.824 175.446 183.672 174.998 186.552C174.582 189.432 174.198 192.168 173.846 194.76C173.846 195.208 173.766 195.512 173.606 195.672C173.446 195.832 173.222 195.896 172.934 195.864C172.678 195.832 172.358 195.736 171.974 195.576C171.59 195.448 171.19 195.304 170.773 195.144C169.91 194.76 169.222 194.296 168.71 193.752C168.23 193.176 168.086 192.312 168.278 191.16C168.342 190.04 168.454 188.76 168.614 187.32C168.774 185.848 168.966 184.248 169.19 182.52C168.358 182.712 167.51 182.888 166.646 183.048C165.814 183.208 164.982 183.384 164.15 183.576C163.798 185.688 163.494 187.688 163.238 189.576C163.014 191.464 162.79 193.176 162.566 194.712C162.47 195.256 162.326 195.608 162.134 195.768C161.942 195.928 161.574 195.912 161.03 195.72C160.518 195.496 159.974 195.272 159.398 195.048C158.854 194.824 158.389 194.536 158.005 194.184C157.525 193.832 157.189 193.432 156.997 192.984C156.805 192.504 156.789 191.848 156.949 191.016C157.333 188.904 157.701 186.52 158.053 183.864C158.405 181.176 158.742 178.44 159.062 175.656C159.414 172.84 159.75 170.088 160.07 167.4C160.39 164.68 160.694 162.248 160.982 160.104C161.142 159.304 161.366 158.84 161.654 158.712C161.942 158.584 162.358 158.648 162.902 158.904C163.478 159.128 164.102 159.432 164.773 159.816C165.446 160.2 166.038 160.616 166.55 161.064C167.094 161.512 167.414 161.928 167.51 162.312C167.638 162.664 167.638 163.176 167.51 163.848C167.19 165.32 166.854 167.096 166.502 169.176C166.15 171.256 165.766 173.496 165.35 175.896C166.182 175.768 166.998 175.656 167.798 175.56C168.63 175.464 169.414 175.384 170.15 175.32C170.598 172.408 171.03 169.576 171.446 166.824C171.862 164.072 172.262 161.64 172.646 159.528C172.806 158.728 173.03 158.28 173.318 158.184C173.638 158.056 174.086 158.104 174.662 158.328C175.206 158.52 175.766 158.808 176.342 159.192C176.95 159.544 177.526 159.944 178.07 160.392C178.582 160.84 178.886 161.256 178.982 161.64C179.11 161.992 179.11 162.488 178.982 163.128ZM193.341 186.072C191.805 186.392 190.253 186.712 188.685 187.032C187.149 187.352 185.789 187.736 184.605 188.184C184.157 189.4 183.757 190.552 183.405 191.64C183.085 192.696 182.765 193.736 182.445 194.76C182.253 195.304 182.029 195.624 181.773 195.72C181.549 195.816 181.197 195.736 180.717 195.48C180.461 195.32 180.173 195.144 179.853 194.952C179.501 194.728 179.165 194.488 178.845 194.232C178.525 193.976 178.253 193.688 178.029 193.368C177.805 193.048 177.677 192.696 177.645 192.312C177.613 191.928 177.693 191.272 177.885 190.344C178.461 188.232 179.181 185.848 180.045 183.192C180.877 180.504 181.757 177.784 182.685 175.032C183.613 172.248 184.557 169.56 185.517 166.968C186.477 164.344 187.357 162.072 188.157 160.152C188.445 159.48 188.813 158.936 189.261 158.52C189.709 158.104 190.365 157.944 191.229 158.04C192.733 158.136 193.949 158.344 194.877 158.664C195.805 158.984 196.685 159.304 197.517 159.624C198.125 159.88 198.509 160.248 198.669 160.728C198.861 161.176 198.941 161.768 198.909 162.504C198.877 164.328 198.861 166.52 198.861 169.08C198.893 171.608 198.941 174.296 199.005 177.144C199.101 179.992 199.197 182.904 199.293 185.88C199.421 188.824 199.549 191.64 199.677 194.328C199.709 194.904 199.645 195.304 199.485 195.528C199.325 195.752 198.973 195.864 198.429 195.864C197.885 195.864 197.373 195.832 196.893 195.768C196.413 195.736 195.917 195.592 195.405 195.336C194.893 195.112 194.525 194.824 194.301 194.472C194.109 194.12 193.965 193.496 193.869 192.6C193.773 191.672 193.677 190.664 193.581 189.576C193.485 188.488 193.405 187.32 193.341 186.072ZM187.437 179.832C189.261 179.448 191.101 179.16 192.957 178.968C192.893 176.664 192.829 174.392 192.765 172.152C192.701 169.912 192.669 167.736 192.669 165.624C191.933 167.544 191.101 169.72 190.173 172.152C189.277 174.584 188.365 177.144 187.437 179.832ZM209.061 184.056C208.741 185.912 208.437 187.72 208.149 189.48C207.893 191.208 207.637 192.936 207.381 194.664C207.285 195.176 207.141 195.512 206.949 195.672C206.757 195.832 206.405 195.832 205.893 195.672C205.349 195.448 204.853 195.272 204.405 195.144C203.957 195.016 203.541 194.792 203.157 194.472C202.773 194.12 202.517 193.704 202.389 193.224C202.261 192.712 202.229 192.04 202.293 191.208C202.389 190.312 202.533 189 202.725 187.272C202.885 185.544 203.077 183.64 203.301 181.56C203.525 179.448 203.765 177.288 204.021 175.08C204.309 172.84 204.613 170.776 204.933 168.888C205.253 167 205.573 165.416 205.893 164.136C206.213 162.824 206.549 162.056 206.901 161.832C208.053 161.128 209.253 160.456 210.501 159.816C211.781 159.144 213.029 158.664 214.245 158.376C215.461 158.088 216.613 158.072 217.701 158.328C218.821 158.552 219.797 159.192 220.629 160.248C221.301 161.176 221.925 162.2 222.501 163.32C223.109 164.44 223.589 165.816 223.941 167.448C224.293 169.272 224.261 170.744 223.845 171.864C223.237 173.784 222.149 175.576 220.581 177.24C219.013 178.872 217.109 180.408 214.869 181.848C215.349 182.616 215.877 183.448 216.453 184.344C217.029 185.24 217.621 186.136 218.229 187.032C218.869 187.896 219.493 188.744 220.101 189.576C220.709 190.408 221.285 191.144 221.829 191.784C222.277 192.328 222.485 192.76 222.453 193.08C222.421 193.4 222.245 193.736 221.925 194.088C221.573 194.536 221.253 194.808 220.965 194.904C220.709 194.968 220.389 195.048 220.005 195.144C219.557 195.336 219.045 195.384 218.469 195.288C217.893 195.224 217.237 194.856 216.501 194.184C216.021 193.672 215.461 193.032 214.821 192.264C214.181 191.496 213.525 190.664 212.853 189.768C212.181 188.872 211.509 187.944 210.837 186.984C210.197 185.992 209.605 185.016 209.061 184.056ZM212.421 166.968C212.101 168.312 211.781 169.784 211.461 171.384C211.173 172.952 210.837 174.648 210.453 176.472C211.797 175.832 212.997 175.048 214.053 174.12C215.109 173.192 215.973 172.264 216.645 171.336C217.349 170.408 217.845 169.528 218.133 168.696C218.453 167.864 218.549 167.224 218.421 166.776C218.165 166.04 217.477 165.672 216.357 165.672C215.813 165.672 215.205 165.768 214.533 165.96C213.861 166.152 213.157 166.488 212.421 166.968ZM245.846 164.568C245.11 164.664 244.294 164.776 243.398 164.904C242.534 165 241.638 165.112 240.71 165.24C240.326 167.512 239.926 169.912 239.51 172.44C239.094 174.936 238.678 177.48 238.262 180.072C237.846 182.632 237.446 185.176 237.062 187.704C236.71 190.232 236.39 192.632 236.102 194.904C236.07 195.352 235.974 195.656 235.814 195.816C235.654 195.976 235.43 196.04 235.142 196.008C234.886 195.976 234.566 195.88 234.182 195.72C233.83 195.56 233.43 195.384 232.982 195.192C232.086 194.808 231.382 194.328 230.87 193.752C230.358 193.176 230.198 192.28 230.39 191.064C230.486 189.592 230.646 187.816 230.87 185.736C231.094 183.656 231.35 181.496 231.638 179.256C231.926 177.016 232.23 174.776 232.55 172.536C232.902 170.296 233.238 168.264 233.558 166.44C233.014 166.568 232.47 166.68 231.926 166.776C231.414 166.872 230.982 166.984 230.63 167.112C230.15 167.272 229.75 167.304 229.43 167.208C229.142 167.08 228.822 166.744 228.47 166.2C228.086 165.656 227.734 164.968 227.414 164.136C227.126 163.304 226.886 162.616 226.694 162.072C226.502 161.496 226.47 161.112 226.598 160.92C226.726 160.728 226.966 160.568 227.318 160.44C228.406 160.152 229.638 159.88 231.014 159.624C232.422 159.368 233.846 159.144 235.286 158.952C236.726 158.76 238.134 158.6 239.51 158.472C240.918 158.344 242.166 158.248 243.254 158.184C243.798 158.184 244.198 158.264 244.454 158.424C244.742 158.552 244.982 158.776 245.174 159.096C245.558 159.672 245.878 160.296 246.134 160.968C246.422 161.64 246.646 162.296 246.806 162.936C246.934 163.544 246.95 163.96 246.854 164.184C246.758 164.376 246.422 164.504 245.846 164.568ZM245.383 185.496C246.119 185.016 246.919 184.824 247.784 184.92C248.68 184.984 249.432 185.304 250.04 185.88C251.768 187.512 253.288 188.568 254.6 189.048C255.912 189.496 256.856 189.368 257.432 188.664C257.784 188.312 257.736 187.832 257.288 187.224C256.872 186.584 256.248 185.864 255.416 185.064C254.584 184.264 253.672 183.416 252.68 182.52C251.688 181.624 250.808 180.712 250.04 179.784C248.952 178.504 248.168 176.936 247.688 175.08C247.207 173.192 247.255 171.144 247.832 168.936C248.024 167.976 248.328 167 248.744 166.008C249.192 164.984 249.704 163.992 250.28 163.032C250.856 162.072 251.48 161.176 252.152 160.344C252.856 159.512 253.544 158.824 254.216 158.28C254.44 158.056 254.728 157.848 255.08 157.656C255.432 157.432 255.832 157.272 256.28 157.176C256.728 157.08 257.208 157.048 257.72 157.08C258.232 157.112 258.76 157.24 259.304 157.464C260.136 157.848 260.984 158.344 261.848 158.952C262.712 159.528 263.448 160.168 264.056 160.872C264.856 161.8 265.32 162.744 265.448 163.704C265.608 164.664 265.704 165.544 265.736 166.344C265.704 167.016 265.624 167.8 265.496 168.696C265.4 169.592 265.272 170.504 265.112 171.432C264.984 172.328 264.824 173.208 264.632 174.072C264.472 174.904 264.296 175.624 264.104 176.232C263.88 176.776 263.64 177.128 263.384 177.288C263.16 177.448 262.792 177.384 262.28 177.096C259.528 175.752 258.248 173.912 258.44 171.576C258.472 171.096 258.536 170.552 258.632 169.944C258.728 169.304 258.824 168.68 258.92 168.072C259.016 167.464 259.096 166.888 259.16 166.344C259.224 165.8 259.24 165.368 259.208 165.048C259.176 164.696 259.08 164.488 258.92 164.424C258.76 164.36 258.504 164.504 258.152 164.856C257.672 165.208 257.128 165.832 256.52 166.728C255.912 167.592 255.416 168.568 255.032 169.656C254.648 170.744 254.44 171.864 254.408 173.016C254.376 174.136 254.696 175.144 255.368 176.04C256.264 177.224 257.288 178.328 258.44 179.352C259.624 180.344 260.68 181.352 261.608 182.376C262.568 183.368 263.288 184.424 263.768 185.544C264.28 186.632 264.312 187.864 263.864 189.24C263.672 189.912 263.384 190.632 263 191.4C262.648 192.168 262.168 192.888 261.56 193.56C260.952 194.232 260.184 194.792 259.256 195.24C258.36 195.688 257.272 195.928 255.992 195.96C254.264 196.024 252.584 195.56 250.952 194.568C249.352 193.576 247.736 191.88 246.104 189.48C245.207 188.296 244.759 187.416 244.759 186.84C244.759 186.264 244.967 185.816 245.383 185.496Z" fill="black"/>
<path d="M257 148.5C257 118.133 244.884 89.0092 223.317 67.5363C201.751 46.0634 172.5 34 142 34C111.5 34 82.2494 46.0634 60.6827 67.5363C39.116 89.0092 27 118.133 27 148.5L142 148.5H257Z" fill="url(#paint0_linear_120_3)"/>
<path d="M167.018 45C164.524 45 162.133 45.9935 160.37 47.7619C158.607 49.5303 157.616 51.9288 157.616 54.4298C157.616 56.9307 158.607 59.3292 160.37 61.0976C162.133 62.8661 164.524 63.8595 167.018 63.8595C169.511 63.8595 171.903 62.8661 173.666 61.0976C175.429 59.3292 176.42 56.9307 176.42 54.4298C176.42 51.9288 175.429 49.5303 173.666 47.7619C171.903 45.9935 169.511 45 167.018 45ZM124.71 63.8595C122.359 63.8595 115.308 63.8595 120.009 70.9319L131.761 92.1489H115.308C112.704 92.1772 110.447 93.0918 108.257 94.5063C100.679 83.8601 94.0788 87.9243 87.1967 92.1489C83.4078 94.478 79.5248 96.8543 75.3504 96.8638C74.733 96.8827 74.1461 97.1371 73.7093 97.5752C73.2726 98.0133 73.0189 98.602 73 99.2212C73.0189 99.8404 73.2726 100.429 73.7093 100.867C74.1461 101.305 74.733 101.56 75.3504 101.579C78.8855 101.767 82.9377 100.702 86.9898 99.6267C93.1574 97.9953 99.3062 96.3734 103.593 99.2212C102.71 100.985 101.205 106.294 101.205 111.008L101.187 125.247C99.2498 127.171 97.6233 126.407 95.9685 125.625C94.6523 125.012 93.3078 124.399 91.8036 125.153L82.4018 152.971C82.4018 155.328 86.0967 155.819 87.1027 153.442L94.154 136.884C101.187 136.884 115.308 129.868 120.009 120.438L157.616 129.868L181.12 153.442C182.973 155.3 186.95 152.141 185.445 149.812L167.018 120.438L185.821 96.8638C188.153 101.579 190.475 101.579 195.091 101.579H195.223L200.864 108.651C204.512 113.224 212.334 108.585 209.326 103.936L193.662 80.7388L195.223 78.0042C195.806 76.2408 191.81 72.5727 190.522 73.2893L171.719 87.434L156.582 65.6229C156.141 65.0724 155.583 64.6282 154.948 64.323C154.314 64.0178 153.619 63.8594 152.915 63.8595H124.71ZM157.616 85.0765L162.317 92.1489L136.716 110.216C136.203 110.581 135.622 110.839 135.008 110.975C134.394 111.11 133.758 111.121 133.14 111.006C132.522 110.891 131.933 110.653 131.408 110.305C130.883 109.958 130.433 109.508 130.084 108.983C129.735 108.458 129.495 107.868 129.378 107.249C129.261 106.629 129.269 105.992 129.402 105.375C129.534 104.759 129.789 104.175 130.151 103.659C130.513 103.143 130.974 102.705 131.507 102.371L157.616 85.0765Z" fill="white"/>
</g>
<defs>
<linearGradient id="paint0_linear_120_3" x1="142" y1="34" x2="142" y2="263" gradientUnits="userSpaceOnUse">
<stop stop-color="#FBD038"/>
<stop offset="0.625" stop-color="#CE0808"/>
</linearGradient>
<clipPath id="clip0_120_3">
<rect width="275" height="209" fill="white"/>
</clipPath>
</defs>
</svg>
