<?xml version="1.0" encoding="UTF-8"?>
<svg id="Layer_1" data-name="Layer 1" xmlns="http://www.w3.org/2000/svg" xmlns:xlink="http://www.w3.org/1999/xlink" version="1.1" viewBox="0 0 16 16">
  <defs>
    <style>
      .cls-1 {
        clip-path: url(#clippath);
      }

      .cls-2 {
        fill: none;
      }

      .cls-2, .cls-3, .cls-4, .cls-5 {
        stroke-width: 0px;
      }

      .cls-3 {
        fill: url(#radial-gradient);
      }

      .cls-4 {
        fill: #b9e425;
        fill-rule: evenodd;
      }

      .cls-5 {
        fill: #fff;
      }
    </style>
    <clipPath id="clippath">
      <rect class="cls-2" y="0" width="16" height="16"/>
    </clipPath>
    <radialGradient id="radial-gradient" cx="-240.4" cy="448.2" fx="-240.4" fy="448.2" r="1" gradientTransform="translate(-6698.6 2047) rotate(90) scale(8.5 -15)" gradientUnits="userSpaceOnUse">
      <stop offset=".2" stop-color="#3a4149"/>
      <stop offset="1" stop-color="#101214"/>
    </radialGradient>
  </defs>
  <g class="cls-1">
    <g>
      <rect class="cls-5" y="0" width="16" height="16"/>
      <path class="cls-3" d="M-11-1h30v17H-11V-1Z"/>
    </g>
  </g>
  <g id="mask0_413_52" data-name="mask0 413 52">
    <path class="cls-4" d="M6.9-4.1c.2-.1.4-.2.6-.2s.4,0,.6.2L17.9,1.6c.2,0,.3.2.4.4,0,.2.1.3.1.5v11.3c0,.4-.2.7-.5.9l-9.9,5.6c-.2.1-.4.2-.6.2s-.4,0-.6-.2L-2.9,14.7c-.2,0-.3-.2-.4-.4,0-.2-.1-.3-.2-.5V2.5c0-.4.2-.7.5-.9L6.9-4.1ZM7-3.4c.2,0,.4-.1.5-.1s.4,0,.5.1L17.3,1.9c.3.2.5.5.5.9v10.7c0,.2,0,.3-.1.5,0,.2-.2.3-.4.4l-5.1,2.9-.2-6.3,1-2.7h0c0,0,0-.4,0-.4.1-.6.3-1.3.3-1.9,0-.4-.1-1.7-.2-2.3h0c0-.1,0-.3,0-.3-.1-.3-.3-.6-.6-.9-.2-.3-.5-.5-.8-.6-.3-.1-.6-.2-1-.1-.2-.2-.4-.4-.6-.5-.3-.1-.5-.2-.8-.2-.1,0-.3,0-.4,0-.3-.4-.8-.7-1.2-.7-.4,0-.8,0-1.1.1-.3-.2-.6-.3-.9-.3h0c-.6,0-1.1.2-1.5.5-.3.3-.4.6-.5.9-.4,0-.8.2-1.2.4-.7.4-.9,1.1-.9,1.5,0,.4,0,.8,0,1.2l.3,2.8,2.6,3.2-.6,7-6.1-3.5c-.2,0-.3-.2-.4-.4,0-.2-.1-.3-.1-.5V2.8c0-.4.2-.7.5-.9L7-3.4h0ZM4.3,18.1l.4.2v-1.4c.1,0,2-3.8,2-3.8l4.5,3.9h0v.8s.5-.3.5-.3l-.2-6.6,1.1-2.7h0s0-.4,0-.4c.1-.6.3-1.2.3-1.8,0-.7,0-1.5-.2-2.2h0c0,0,0-.1,0-.1-.1-.3-.3-.6-.5-.8-.2-.3-.6-.6-1.1-.6s-.4,0-.5,0c-.1-.2-.3-.4-.5-.6-.2-.1-.5-.2-.7-.2-.2,0-.5,0-.7.1,0-.2-.2-.4-.4-.6-.2-.1-.4-.2-.7-.3-.2,0-.4,0-.6,0-.2,0-.4.1-.5.2-.2-.2-.6-.4-.9-.4h0c-1.1,0-1.4.6-1.6,1.4-.4,0-.9.1-1.4.3-.5.3-.6.8-.7,1.1,0,.4,0,.7,0,1.1l.3,2.7,2.6,3.3-.6,7.4h0ZM6.6,13l-1.8,3.6.5-5.9,1.3,2.3h0ZM4.2,7.2l1,3.1-2.4-3.1h1.4ZM4.1,7.1h-1.4c0,0-.2-1.6-.2-1.6h0c0,0,0,0,0,0l1.5,1.6ZM3.1,3.3l-.6,1.9v-.6c-.1-.5-.1-1.4.3-1.8l.3.4h0ZM3.2,3.3l-.3-.4c.4-.2.9-.3,1.4-.3l.6,1.1-1.7-.4ZM5.5,2.1l-1.1.4v-.9c.1,0,.2,0,.2-.1l.9.6ZM5.6,1.1c-.5,0-.8.1-.9.3l.9.6h0s.8-.2.8-.2c-.1-.5-.6-.6-.8-.7ZM6.5,1.9h0v3.2c0,0,0,0,0,0l1.1-1.7-1-1.6h0ZM7.6,1.3c-.6,0-.9.2-1,.5l1.8.4c0-.2-.1-.4-.3-.6-.1-.2-.3-.2-.6-.3h0ZM9.3,3.6l-.7-1.3c.1-.1.4-.3.8-.3s.9.4.9.9l-1.1.6h0ZM10.6,2.9h0s0,0,0,0l.4.7h1.3c-.2-.5-.6-1-1-1s-.5.1-.6.2h0ZM12,4.5c.1-.3.2-.6.3-.8h0c0,.6.1,1.5.1,2.1l-.5-1.2h0ZM12.4,6h0c0,.5-.1,1.1-.2,1.6h0s-2.5-.7-2.5-.7l2.7-.8ZM9.6,9l2.6-1.4v.4c0,0-1.2,2.8-1.2,2.8l-1.4-1.8h0ZM11,10.9h0s.2,5.8.2,5.8l-2-5,1.8-.8ZM8.4,2.2l-1.7-.3.9,1.5.7-1.1ZM6.7,5l1-1.5.5.7-1.4.8ZM6.5,5.4h.2c0,.1.7.9.7.9-.3-.2-.7-.3-1-.5l.2-.4h0ZM6.3,4.8v-1.9s-.4.6-.4.6l.4,1.3h0ZM5.6,3.9c-.3.3-.6.5-1,.6l.5.8.5-1.5ZM4.9,5.3c-.1,0-.2-.2-.3-.3,0-.1,0-.3-.1-.4l.4.7ZM5.2,5.4l.7-1.8.5,1.5h0c0,.2-.3.4-.7.4h0s-.3-.1-.3-.1ZM5.1,5.5h0c0,0,0,0,0,0l1,1.3-3.3-1.4h2.2ZM6.4,5.3l-.2.4c-.1,0-.3,0-.4-.1.2,0,.4-.1.5-.3h0ZM7.6,6.6h0s0,0,0,0c.6.4,1,.9,1.4,1.5l-2.6-1.1,1.2-.4ZM7.7,6.5l.2-.8c.1.1.2.3.4.4.2,0,.3.1.5.1.3,0,.6,0,.9-.3l-.2.9-1.7-.3h0ZM7.8,5.6l-.2.8-.7-.7c0,0,.2,0,.2,0,.2,0,.4,0,.6-.1ZM7.7,5.5c-.2,0-.4.1-.5.1-.2,0-.3,0-.5-.2h0s-.1-.1-.1-.1l1.1.2ZM7.8,5.4l-1.3-.2,1.6-.9c0,.3-.2.7-.3,1ZM7.9,5.5c0,.2.2.3.4.4.2,0,.3.1.5.1.5,0,.8-.2.9-.4h0c0,0-1.8-.2-1.8-.2h0s0,0,0,0ZM9.6,5.5h-1.7c0-.1,0-.2,0-.2,0-.3.2-.7.2-1l1.4,1.2ZM7.7,3.5l.7-1.1c0,.5-.2,1.1-.3,1.6h0s-.4-.6-.4-.6ZM6.7,12.9l-1.3-2.3h2.4s-1.2,2.3-1.2,2.3h0ZM5.4,10.5h2.4s-3.5-3.2-3.5-3.2l1,3.1h0ZM10.9,10.8l-1.4-1.7-.3,2.5,1.7-.8ZM9.4,9.2l-1.4,1.3,1.1,1.1.3-2.4ZM9.1,11.7l-1.1-1.1-1.2,2.4,4.3,3.8-2-5h0s0,0,0,0ZM11.9,7.7l-2.4,1.2-.3-.7,2.7-.5ZM9.4,9l-.3-.7-1,2,1.3-1.2h0ZM9.4,6.9l-.3,1.1c-.3-.5-.7-1-1.2-1.4l1.6.2h0ZM7.6,6.5c-.7-.4-1.3-.7-2.1-.9,0,0-.1,0-.2,0l1,1.3h0s0,0,0,0l1.2-.4h0ZM12.4,5.9l-.4-1.2c-.1.3-.3.6-.4.8-.2.4-.5.6-.8.7-.3,0-.6,0-.9-.4l-.3.9,2.8-.9ZM7.8,10.3l-3.5-3.1h1.9c0-.1,1.5,3.1,1.5,3.1h0ZM4.2,7.1h1.9c0-.1-3.3-1.5-3.3-1.5l1.4,1.5ZM9.2,8.1l.3-1.2,2.4.7-2.7.5ZM8,10.4l1.1-2.2-2.6-1.1,1.6,3.3ZM4.9,5.4h-2.2c0,0,1.1-.8,1.1-.8h0c.2,0,.4,0,.6,0,0,.2,0,.3.1.5,0,.2.2.3.3.4M9.2,3.6l-.6-1.2c0,.6-.2,1.2-.3,1.8l.9-.5ZM8.3,4.2l.9-.5.4,1.6-1.3-1.1ZM9.3,3.7l1-.6c-.1.7-.4,1.9-.5,2.4h0s-.5-1.8-.5-1.8h0ZM10.4,3c-.1.7-.3,1.7-.5,2.3l.9-1.6-.4-.6h0ZM9.9,5.5l1.9-1c.1-.3.2-.6.3-.8h-1.2c0,0-1,1.9-1,1.9h0ZM5.7,2.1l.7-.2v.8s-.7-.5-.7-.5h0ZM6,3.2l.4-.4-.3-.2c0,.2,0,.5-.1.6ZM5.6,2.2h0c0,0,.1.1.2.2l.2.2c0,.3,0,.6-.2.9l-.8.3-.6-1.1,1.2-.4h0ZM5.7,3.5c-.2.4-.5.6-.9.8-.3.1-.6.2-.9.2l1-.7h0l.7-.2h0ZM10.7,6.1c-.3,0-.5,0-.8-.4l2-1.1c-.1.3-.3.6-.4.8-.2.4-.5.6-.8.6h0ZM4.9,3.7l-1.7-.4-.6,1.9,2.3-1.6Z"/>
  </g>
</svg>