<?xml version="1.0" encoding="UTF-8"?>
<svg id="Layer_1" data-name="Layer 1" xmlns="http://www.w3.org/2000/svg" xmlns:xlink="http://www.w3.org/1999/xlink" version="1.1" viewBox="0 0 236 185">
  <defs>
    <style>
      .cls-1 {
        clip-path: url(#clippath);
      }

      .cls-2 {
        fill: none;
      }

      .cls-2, .cls-3, .cls-4, .cls-5 {
        stroke-width: 0px;
      }

      .cls-3 {
        fill-rule: evenodd;
      }

      .cls-3, .cls-4 {
        fill: #b9e425;
      }

      .cls-5 {
        fill: #e42525;
      }
    </style>
    <clipPath id="clippath">
      <rect class="cls-2" x="50.5" y="4.1" width="145.8" height="109.7"/>
    </clipPath>
  </defs>
  <g class="cls-1">
    <g id="mask0_413_52" data-name="mask0 413 52">
      <path class="cls-3" d="M120.9,5c1.1-.6,2.3-.9,3.5-.9s2.4.3,3.5.9l60,34.1c1,.5,1.8,1.3,2.4,2.3.6,1,.9,2.1.9,3.2v68.7c0,2.2-1.2,4.4-3.3,5.5l-60,34.1c-1.1.6-2.3.9-3.5.9s-2.4-.3-3.5-.9l-60-34.1c-1-.5-1.8-1.3-2.4-2.3-.6-1-.9-2.1-.9-3.2V44.7c0-2.2,1.2-4.4,3.3-5.5L120.9,5ZM121.1,9.1c1-.6,2.1-.9,3.3-.9s2.3.3,3.3.9l56.2,32.2c2,1.1,3.1,3.1,3.1,5.2v64.9c0,1.1-.3,2.1-.8,3.1-.6.9-1.3,1.7-2.3,2.2l-31,17.8-1.3-38.2,6.3-16.4v-.3c.1,0,.5-2,.5-2,.9-3.6,1.9-7.7,1.8-11.7,0-2.6-.6-10.4-.9-13.7v-.9s-.4-.8-.4-.8c-.9-2-2-3.9-3.5-5.5-1.2-1.5-2.9-2.8-4.7-3.5-1.8-.8-3.8-1.1-5.8-.9-1.1-1.3-2.4-2.4-3.9-3.1-1.5-.7-3.2-1.1-4.9-1-.9,0-1.8,0-2.7.2-1.9-2.4-4.6-4-7.6-4.4-2.3-.4-4.8-.2-6.9.7-1.6-1.1-3.5-1.8-5.5-2h-.6c-3.8,0-6.9,1-9.1,3.3-1.5,1.6-2.4,3.6-3,5.7-2.6.3-5,1.1-7.4,2.2-4.1,2.2-5.3,6.6-5.6,9-.4,2.5-.4,5,0,7.4l2.1,17.2,15.7,19.7-3.5,42.5-37.2-21.3c-.9-.5-1.7-1.3-2.3-2.2-.5-.9-.8-2-.9-3V46.5c0-2.2,1.2-4.2,3.1-5.2L121.1,9.1h0ZM104.8,139.6l2.6,1.5.8-8.5,11.6-23.2,27.3,23.6h0l.2,4.7,2.8-1.7-1.4-40.3,6.4-16.7v-.2s.5-2.1.5-2.1c.8-3.6,1.8-7.3,1.8-10.9-.2-4.5-.5-9.1-.9-13.6v-.4s-.2-.4-.2-.4c-.8-1.7-1.8-3.4-3.1-4.8-1.3-1.5-3.6-3.5-6.6-3.5s-2.3.2-3.1.5c-.7-1.4-1.7-2.6-3-3.4-1.3-.8-2.8-1.2-4.4-1.2-1.4,0-2.8.3-4,.7-.6-1.3-1.5-2.5-2.7-3.4-1.2-.9-2.6-1.4-4-1.6-1.2-.2-2.4-.2-3.6,0-1.2.3-2.3.7-3.2,1.5-1.5-1.5-3.4-2.4-5.5-2.7h-.3c-6.6,0-8.8,3.4-9.6,8.7-2.4.2-5.6.7-8.4,2.1-2.9,1.5-3.8,4.7-4.2,7-.3,2.2-.4,4.4,0,6.7l2.1,16.6,15.9,20-3.7,44.9h0ZM119.1,109l-10.8,21.7,3.1-36,7.8,14.1v.2ZM104.1,73.3l6.3,19.1-14.8-18.6,8.6-.5ZM103.6,72.7l-8.3.5-1.3-10v-.3c0,0,.2,0,.2,0l9.3,9.9ZM97.5,49.8l-3.6,11.7-.4-3.7c-.4-2.8-.4-8.6,2.4-10.7l1.7,2.6h0ZM98.2,49.5l-1.8-2.7c2.6-1.2,5.5-1.7,8.4-1.7l3.6,6.5-10.2-2.2ZM112.4,42.3l-6.6,2.4.8-5.4c0-.3.2-.5.3-.7l5.4,3.7ZM112.8,36.4c-3,0-4.7.8-5.5,1.8l5.6,3.7.2.2,4.6-1.7c-.7-2.9-3.5-3.9-4.8-4ZM118.5,41h0l-.5,19.7v.3c.1,0,6.9-10.3,6.9-10.3l-6.3-9.7h0ZM124.9,37.6c-3.7-.6-5.4,1.3-6,2.8l10.9,2.3c-.1-1.3-.7-2.5-1.6-3.4-.9-.9-2.1-1.5-3.4-1.6h0ZM135.1,51.3l-4.1-7.7c.8-.7,2.6-1.8,5.1-1.8s5.3,2.7,5.4,5.6l-6.5,4h0ZM143,47.3l-.3.2v.2c0,0,2.6,4.1,2.6,4.1l7.8-.5c-1.3-2.3-3.6-5.4-6.3-5.4s-3.2.6-3.8,1.3h0ZM151.7,57.2c.7-1.8,1.3-3.6,1.8-5.1l.2.4c.2,3,.7,9,.8,12.1l-2.8-7.5h0ZM154.2,65.9l.3.8c-.1,2-.8,5.7-1.5,8.7h-.4c0,0-15-4.3-15-4.3l16.6-5.2ZM137.2,84.5l15.7-8.2-.5,2.2-6.6,16.9-8.7-10.8h0ZM145.6,96.2l.2.3,1.2,34.8-12.2-30.3,10.8-4.8ZM129.7,43.3l-10.2-2.1,5.8,8.9,4.5-6.8ZM119.3,60.3l5.9-9,2.9,4-8.8,5ZM118.1,62.5l1,.8,4.3,4.4c-2-1.1-4-2-6.1-2.8l.9-2.5h0ZM117.3,58.8l.3-11.6-3,3.5,2.7,8.1h0ZM112.9,53.2c-1.5,1.8-3.6,3.2-6,3.7l2.8,5.2,3.2-8.9ZM108.9,61.9c-.7-.5-1.2-1.1-1.6-1.9-.4-.7-.6-1.5-.6-2.3l2.2,4.2ZM110.3,62.7l4-11,3,9.1v.6c-.3.6-1.7,2-4.3,2h-.6s-2.1-.7-2.1-.7ZM109.6,63.3l.2.4v-.2c.1,0,6.1,7.7,6.1,7.7l-19.9-8.5,13.7.6ZM117.4,62.2l-1,2.5c-.8-.3-1.6-.6-2.4-.8,1.3-.2,2.4-.8,3.3-1.7h0ZM125.3,69.8l.2.2v-.2c3.4,2.3,6.3,5.4,8.3,8.9l-15.5-6.6,7-2.4ZM125.7,69.1l.9-4.7c.7.9,1.5,1.6,2.5,2.1,1,.5,2.1.8,3.2.8,1.9,0,3.8-.6,5.3-1.7l-1.5,5.2-10.5-1.7h0ZM126.1,63.7l-1,5-4.2-4.4c.5.2,1,.3,1.5.2,1.3,0,2.5-.3,3.7-.9ZM125.8,63.1c-1,.6-2.2.9-3.3.8-1,0-2-.4-2.8-1h-.1c0,0-.6-.7-.6-.7l6.9.9ZM126.4,62.5l-7.9-1,9.4-5.3c-.4,2.1-1,4.2-1.5,6.3ZM126.9,63.4c.5,1,1.4,1.8,2.3,2.3,1,.6,2.1.9,3.2.9,3,0,4.8-1.3,5.5-2.2v-.5c-.1,0-11-.7-11-.7v.2s0,0,0,0ZM137.5,63.2l-10.4-.6.2-.4c.6-2.1,1.1-4.2,1.5-6.4l8.8,7.4ZM125.6,50.7l4.3-6.5c-.4,3-1,6.7-1.5,9.9v.3c0,0-2.7-3.7-2.7-3.7ZM119.6,108.1l-7.9-14.1,14.9-.3-7.1,14.3h0ZM111.4,93.3l14.8-.2-21.1-19,6.2,19.1h0ZM145.2,95.6l-8.4-10.6-2,15.3,10.5-4.7ZM136,85.5l-8.4,8,6.5,6.7,1.9-14.7ZM134,101l-6.7-6.9-7.2,14.7,26.4,22.9-12.2-30.3h-.3c0,.1,0-.3,0-.3ZM151.2,76.4l-14.3,7.5-2-4.4,16.3-3.1ZM136.3,84.3l-1.9-4.4-5.9,11.9,7.9-7.5h0ZM136.1,71.4l-1.9,6.8c-1.9-3.2-4.5-6.1-7.6-8.3l9.4,1.5h0ZM124.7,69.3c-4-2.3-8.2-4.1-12.5-5.4-.4,0-.9-.1-1.3-.2l6.3,8.1h.1c0,0,.1,0,.1,0l7.3-2.5h0ZM154.1,65.3l-2.7-7.2c-.8,1.9-1.7,3.7-2.5,5.1-1.4,2.2-3.2,3.7-5.1,4-1.8.3-3.5-.5-5.2-2.3l-1.5,5.6,17-5.2ZM126.2,92.1l-21-18.9,11.7-.7,9.3,19.6h0ZM104.5,72.6l11.4-.7-20-8.6,8.7,9.3ZM134.8,78.9l2-7.4,14.5,4.2-16.5,3.1ZM127.2,92.7l6.6-13.2-16.1-6.8,9.5,20ZM108.7,62.6l-13.3-.5,6.7-4.6h0c1,0,2.4,0,3.9-.3,0,1.1.1,2.1.6,3.1.5,1,1.2,1.8,2.1,2.4M134.5,51.7l-3.9-7.4c-.5,3.6-1,7.1-1.7,10.7l5.6-3.2ZM129.3,55.4l5.5-3.2,2.5,9.9-8-6.7ZM135.4,52l6-3.7c-.8,4.5-2.2,11.3-3.1,14.7h0s-2.8-11-2.8-11h0ZM142.1,48.2c-.8,4-2,10.1-2.9,13.8l5.4-9.9-2.5-4h0ZM139.3,63.3l11.8-6.4c.7-1.8,1.3-3.5,1.7-5l-7.6.5-5.9,10.8h0ZM113.7,42.5l4.1-1.5v4.9c-.1,0-4.1-3.3-4.1-3.3h0ZM115.1,49l2.3-2.6-1.6-1.3c0,1.5-.4,2.9-.7,3.9ZM112.8,42.8h0c.5.3.9.6,1.3,1l1,1c0,1.9-.5,3.8-1.2,5.5l-4.6,1.5-3.6-6.5,7.1-2.6h0ZM113.5,51.1c-1.3,2.4-3.3,3.8-5.3,4.7-1.9.7-3.8,1-5.2,1.1l6.2-4.3h.1l4.2-1.4h0ZM143.7,66.6c-1.5.2-3.2-.4-4.8-2.3l11.9-6.4c-.8,1.9-1.6,3.7-2.5,5.1-1.3,2.2-2.9,3.4-4.6,3.7h0ZM108.3,52.4l-10.2-2.2-3.6,11.7,13.8-9.5Z"/>
    </g>
  </g>
  <path class="cls-5" d="M222.5,139.9c-.1.5-.4.9-.7,1.2s-.8.5-1.2.5h-22.3c-.5,0-.8-.2-1.1-.5s-.3-.7-.2-1.2l4.8-22.8c0-.4.3-.8.7-1.1.4-.3.8-.5,1.3-.5h9.3c.4,0,.8.2,1,.5.3.3.3.7.3,1.1l-4,19h11.4c.4,0,.8.2,1,.5.3.3.3.7.3,1.1l-.4,2.2Z"/>
  <path class="cls-5" d="M193.8,140c0,.4-.3.8-.7,1.1-.3.3-.7.5-1.2.5h-23.8c-.4,0-.8-.2-1-.5-.2-.3-.3-.7-.2-1.1l4.9-22.8c0-.4.3-.8.7-1.1.4-.3.8-.5,1.2-.5h23.8c.4,0,.8.2,1,.5.2.3.3.7.2,1.1l-.4,2.2c-.1.5-.4.9-.7,1.2-.4.3-.8.5-1.2.5h-12.2l-1.1,5.3h8c.4,0,.8.2,1,.5s.3.7.2,1.2l-.3,1.4c-.1.4-.4.8-.7,1.1-.3.3-.7.5-1.2.5h-8l-1.1,5.2h12.2c.4,0,.8.2,1,.5s.3.7.2,1.2l-.5,2.2Z"/>
  <path class="cls-5" d="M169.5,117.2l-12.4,22.8c-.2.5-.5.9-1,1.2s-.9.5-1.3.5h-14.2c-.5,0-.9-.2-1.2-.5-.3-.3-.5-.7-.4-1.2l-2.7-22.8c0-.4.2-.8.5-1.1.3-.3.7-.5,1.1-.5h9.8c.5,0,.8.2,1.1.5.3.3.5.7.5,1.1v16.2c.1,0,7.1-16.2,7.1-16.2.2-.4.5-.8.9-1.1.5-.3.9-.5,1.4-.5h9.8c.4,0,.7.2.9.5.2.3.2.7,0,1.1Z"/>
  <path class="cls-5" d="M130.4,140.2c0,.4-.1.7-.5,1-.3.3-.8.4-1.2.4h-11c-.3,0-.6-.2-.9-.5-.3-.3-.4-.7-.3-1,0-.4.1-1,.1-1.6,0-.7,0-1.4,0-2.1,0-.7-.2-1.5-.3-2.2-.1-.8-.3-1.4-.6-2-.2-.6-.5-1.1-.9-1.4s-.8-.6-1.2-.6l.7-3.3h2.5c.3,0,.5,0,.8-.2.3,0,.5-.2.7-.4.2-.2.3-.4.4-.7l1-5.1c0-.2,0-.4,0-.5,0-.2-.2-.3-.4-.4-.2-.1-.4-.2-.6-.2-.2,0-.4,0-.6,0h-3.6l-4.4,20.6c0,.4-.3.8-.7,1.1-.3.3-.7.5-1.2.5h-9.8c-.4,0-.8-.2-1-.5-.2-.3-.3-.7-.2-1.1l4.9-22.8c0-.4.3-.8.7-1.1.4-.3.8-.5,1.2-.5h23.8c1.6,0,2.8.4,3.7,1.3.9.9,1.2,2,1,3.4l-1.1,5.2c-.1.7-.4,1.4-.9,2-.4.6-.9,1.1-1.5,1.5-.6.4-1.3.7-2,1-.7.2-1.5.3-2.3.3h-.6c.8.1,1.5.4,2,.7.5.3,1,.6,1.4,1,.3.3.6.8.9,1.3s.5,1.1.8,1.7c.4,1,.7,2,.9,2.9.2,1,.4,1.7.4,2.3Z"/>
  <path class="cls-5" d="M94.8,140.4c-.1.8-.6,1.2-1.4,1.2h-10.7c-.5,0-.9-.2-1.3-.5-.3-.3-.5-.7-.5-1.1v-3.6h-6.4l-1.6,3.6c-.2.4-.5.8-1,1.1-.5.3-.9.5-1.3.5h-10.7c-.4,0-.7-.1-.8-.4-.1-.3-.2-.6,0-1,0-.2.1-.4.3-.7l12.1-22.4c.2-.4.6-.8,1-1.1.5-.3.9-.5,1.4-.5h16.7c.5,0,.8.2,1.1.5.3.3.5.7.6,1.1l2.6,22.4c0,.3,0,.5,0,.8ZM80.9,132.5v-11c0,0-4.8,11-4.8,11h4.8Z"/>
  <path class="cls-5" d="M56.8,139.9c-.1.5-.4.9-.7,1.2s-.8.5-1.3.5h-9.3c-.5,0-.8-.2-1.1-.5-.2-.3-.3-.7-.2-1.2l2.3-11.1-6.6,9.9h-1.3l-2.4-9.9-2.3,11.1c-.1.5-.4.9-.7,1.2-.4.3-.8.5-1.2.5h-9.3c-.5,0-.8-.2-1.1-.5-.3-.3-.3-.7-.2-1.2l4.8-22.8c0-.4.3-.8.7-1.1.4-.3.8-.5,1.3-.5h9.3c.3,0,.6.1.9.3s.4.5.4.8l2.8,11.5,7.7-11.5c.2-.3.4-.6.7-.8.3-.2.7-.3,1-.3h9.3c.5,0,.8.2,1,.5.3.3.3.7.3,1.1l-4.8,22.8Z"/>
  <path class="cls-4" d="M214.3,167.8c-.1.6-.4,1.2-.9,1.7-.4.5-.9,1-1.5,1.4-.6.4-1.3.7-2.1.9-.8.2-1.5.3-2.3.3h-23c-.5,0-.8-.2-1.1-.5s-.3-.7-.2-1.2l4.8-22.8c0-.4.3-.8.7-1.1.4-.3.8-.5,1.3-.5h23c.8,0,1.5.1,2.2.3.7.2,1.2.5,1.6,1,.5.4.8.8,1,1.3.2.5.2,1.1.1,1.7l-1.1,5.1c-.2,1-.7,1.8-1.4,2.5-.7.7-1.5,1-2.3,1,.8,0,1.5.3,1.9,1,.4.7.5,1.5.3,2.5l-1.1,5.1ZM202,167l1.1-5c0-.3-.1-.6-.5-.9-.4-.3-.9-.4-1.6-.4h-1.5l.7-3.3h1.5c.6,0,1.2-.1,1.7-.3.5-.3.8-.6.9-.9l1-5c0-.4,0-.7-.5-.9-.4-.3-.9-.4-1.6-.4h-3.2l-3.9,18.4h3.2c.6,0,1.2-.1,1.7-.3.5-.3.8-.6.9-.9Z"/>
  <path class="cls-4" d="M180.6,167.8c-.1.6-.4,1.2-.9,1.7-.4.5-.9,1-1.5,1.4-.6.4-1.3.7-2.1.9-.8.2-1.5.3-2.3.3h-18.8c-.8,0-1.5-.1-2.2-.3-.7-.2-1.2-.5-1.7-.9-.5-.4-.8-.9-1-1.4-.2-.5-.2-1.1,0-1.7l4.2-20.1c0-.4.3-.8.7-1.1.4-.3.8-.5,1.3-.5h9.3c.4,0,.8.2,1,.5.3.3.3.7.3,1.1l-3.7,17.6c-.2.8,0,1.6.3,2.2.4.6,1,.9,1.7.9s1.4-.3,2.1-.9c.7-.6,1.1-1.3,1.3-2.2l3.7-17.6c0-.4.3-.8.7-1.1.4-.3.8-.5,1.3-.5h9.3c.4,0,.8.2,1,.5.3.3.3.7.3,1.1l-4.2,20.1Z"/>
  <path class="cls-4" d="M146.4,170.4c-.1.5-.4.9-.7,1.2s-.8.5-1.3.5h-9.3c-.5,0-.8-.2-1.1-.5-.2-.3-.3-.7-.2-1.2l2-9.8h-6l-2,9.8c-.1.5-.4.9-.7,1.2s-.8.5-1.2.5h-9.3c-.5,0-.8-.2-1.1-.5-.3-.3-.3-.7-.2-1.2l4.8-22.8c0-.4.3-.8.7-1.1.4-.3.8-.5,1.3-.5h9.3c.4,0,.8.2,1,.5.3.3.3.7.3,1.1l-2.1,9.8h6l2.1-9.8c0-.4.3-.8.7-1.1.4-.3.8-.5,1.3-.5h9.3c.5,0,.8.2,1,.5.3.3.3.7.3,1.1l-4.8,22.8Z"/>
</svg>